# xmcd
#
# Track frame offsets:
#	150
#	14974
#	33174
#	50199
#	69246
#	87348
#	101495
#	121075
#	146282
#	166793
#	192182
#
# Disc length: 2780 seconds
# Revision: 0
# Processed by: cddbd v1.5.2PL0 Copyright (c) Steve Scherf et al.
# Submitted via: dBpowerAMP V12.0
#
DISCID=8d0ada0b
DTITLE=Ida Bang and The Blue Tears - Possibilities
DYEAR=2016
DGENRE=Blues
TTITLE0=Come On Home
TTITLE1=People Get Lost
TTITLE2=Big Mouth
TTITLE3=Possibility
TTITLE4=Ghost
TTITLE5=At The End Of The Street
TTITLE6=Old Love
TTITLE7=Lazy Blues
TTITLE8=Before I Leave
TTITLE9=Easy
TTITLE10=Apollo Stomp
EXTD=
EXTT0=
EXTT1=
EXTT2=
EXTT3=
EXTT4=
EXTT5=
EXTT6=
EXTT7=
EXTT8=
EXTT9=
EXTT10=
PLAYORDER=
